<svg width="148" height="52" viewBox="0 0 148 52" fill="none" xmlns="http://www.w3.org/2000/svg">
<path d="M0 17.4835V11.0601H8.5983V17.4835H0ZM0.129923 51.1133V19.5485H8.53334V51.1157H0.127324L0.129923 51.1133Z" fill="#004280"/>
<path d="M31.8614 51.1143V32.0296C31.8614 30.0528 31.3131 28.5976 30.214 27.6663C29.1148 26.7399 27.8104 26.273 26.3033 26.273C24.7962 26.273 23.4242 26.7375 22.325 27.6663C21.2259 28.5976 20.6776 30.0528 20.6776 32.0296V51.1143H12.2716V19.5471C12.2716 19.5471 17.1333 21.9669 24.2999 20.0306C25.8252 19.6185 27.2933 19.1851 28.8888 19.1851C32.207 19.1851 34.8574 20.1139 36.8426 21.9717C38.1341 23.1816 39.0279 24.5153 39.5243 25.9706C40.0206 27.4258 40.2674 29.0835 40.2674 30.9388V51.1143H31.8614Z" fill="#004280"/>
<path d="M59.8818 50.7204C58.5384 51.0991 57.0365 51.4777 55.2306 51.4777C53.5884 51.4777 52.0371 51.2253 50.5742 50.7204C49.1086 50.2154 47.8977 49.52 46.9519 48.6316C45.4838 47.2169 44.4938 45.1972 43.9767 42.5725C43.8052 41.5198 43.6882 40.4314 43.6233 39.3C43.5583 38.1711 43.5245 36.8374 43.5245 35.3011C43.5245 32.0692 43.7298 29.3945 44.1378 27.2724C44.5483 25.155 45.4864 23.4069 46.9519 22.0326C47.8977 21.1442 49.093 20.4464 50.5404 19.9415C51.9851 19.4366 53.526 19.1865 55.1656 19.1865C56.93 19.1865 58.4735 19.427 59.7857 19.9129C61.1005 20.394 62.2958 21.2038 63.3768 22.3351V11.0601H71.7802V51.1133C71.7802 51.1133 65.0788 49.2604 59.8844 50.7204H59.8818ZM63.1793 31.5738C63.0494 30.5425 62.7921 29.6446 62.4023 28.8777C61.5397 27.1414 59.9442 26.2721 57.6186 26.2721C56.4129 26.2721 55.4203 26.4959 54.6433 26.9366C53.8664 27.3819 53.287 27.9964 52.8998 28.7848C52.5126 29.5731 52.2528 30.4925 52.1228 31.5428C51.9955 32.5955 51.9306 33.8435 51.9306 35.2988C51.9306 36.754 51.9955 38.0068 52.1228 39.0547C52.2528 40.1051 52.5126 41.0339 52.8998 41.8413C53.2895 42.6511 53.869 43.2751 54.6433 43.7205C55.4177 44.1635 56.4103 44.3874 57.6186 44.3874C59.9468 44.3874 61.5423 43.5181 62.4023 41.7818C62.7921 41.0125 63.0494 40.0955 63.1793 39.0238C63.3092 37.9544 63.3742 36.7135 63.3742 35.2988C63.3742 33.884 63.3092 32.6027 63.1793 31.5714V31.5738Z" fill="#004280"/>
<path d="M75.4512 17.4835V11.0601H84.0521V17.4835H75.4512ZM75.5812 51.1133V19.5485H83.9846V51.1157H75.5812V51.1133Z" fill="#004280"/>
<path d="M103.145 50.7174C101.853 51.0056 100.351 51.4152 98.457 51.4152C94.7074 51.4152 91.8413 50.484 89.8587 48.6286C88.0034 46.8114 87.0783 44.4487 87.0783 41.5382C87.0783 38.8707 88.0605 36.6819 90.0198 34.9671C91.9816 33.2475 94.8373 32.3901 98.5869 32.3901H106.541V30.8134C106.541 29.0771 106.055 27.8124 105.086 27.0265C104.114 26.2357 102.508 25.8427 100.268 25.8427C98.7168 25.8427 97.4773 26.0357 96.5497 26.4191C95.622 26.8026 94.7074 27.479 93.8005 28.4507L88.4347 23.5396C90.0302 21.8843 91.7347 20.7459 93.5433 20.1171C95.3544 19.4931 97.7008 19.1787 100.593 19.1787C110.16 19.1787 114.944 22.8966 114.944 30.3275V51.108C114.944 51.108 108.835 49.4527 103.145 50.715V50.7174ZM106.541 37.7823H99.8809C96.7342 37.7823 95.1595 38.9731 95.1595 41.3572C95.1595 42.4885 95.5701 43.3769 96.3886 44.0224C97.2045 44.6702 98.4128 44.9941 100.011 44.9941C101.302 44.9941 102.334 44.8917 103.113 44.6916C103.89 44.4892 104.621 44.0819 105.312 43.477C106.13 42.7529 106.541 41.4192 106.541 39.4804V37.7847V37.7823Z" fill="#004280"/>
<path d="M122.686 35.0415C122.686 35.0415 123.978 36.4872 125.145 36.9897C125.145 36.9897 124.594 36.904 123.947 36.9897C123.097 37.0993 122 37.4256 121.26 37.7281C119.602 38.4021 122.689 35.0415 122.689 35.0415H122.686Z" fill="#004280"/>
<path d="M132.27 0.119629C132.27 0.119629 133.39 0.291113 134.263 0.56501C134.78 0.729348 135.308 0.946084 135.308 0.946084C135.308 0.946084 135.032 0.643606 134.814 0.44116C134.596 0.238714 134.458 0.119629 134.458 0.119629H132.273H132.27Z" fill="#F26522"/>
<path d="M127.311 0.118593C127.311 0.118593 130.39 0.16861 132.357 0.471088C134.327 0.771184 134.802 0.852162 134.802 0.852162L135.158 1.00459C135.158 1.00459 131.679 0.728312 130.44 0.76642C128.405 0.828344 127.046 1.20704 127.046 1.20704L127.308 0.116211L127.311 0.118593Z" fill="#F26522"/>
<path d="M126.953 1.57161C126.953 1.57161 129.954 1.06669 131.95 1.05716C133.943 1.05001 134.431 1.05478 134.431 1.05478L134.816 1.15243C134.816 1.15243 131.334 1.4168 130.118 1.64782C128.125 2.02413 126.529 2.75056 126.529 2.75056C126.529 2.75056 126.701 2.30994 126.755 2.15513C126.807 2.01223 126.955 1.56923 126.955 1.56923L126.953 1.57161Z" fill="#F26522"/>
<path d="M123.522 18.9745V25.024C127.724 23.9475 130.442 20.3296 131.577 17.5764C132.713 14.8255 133.794 9.54762 134.607 7.68989C135.415 5.82977 136.361 4.84374 137.741 4.16019C139.118 3.47425 141.833 3.8982 141.833 3.8982L139.118 2.65732C139.118 2.65732 138.998 1.18543 138.143 0.623341C137.517 0.211304 134.737 -0.762817 132.385 3.83151C131.611 5.3439 131.086 8.59017 127.841 12.2723C122.584 18.2361 114.326 18.9768 114.326 18.9768" fill="#F26522"/>
<path d="M142.494 4.40568C142.494 4.40568 136.372 2.75038 133.987 11.9652C132.433 17.9695 132.168 18.6293 130.146 21.423C129.156 22.7949 126.509 24.4621 125.739 25.0218C123.661 26.539 123.52 27.3749 123.52 27.3749V32.4551C123.52 32.4551 124.622 34.5487 127.722 35.0845C130.825 35.6204 133.717 34.0247 134.618 31.6715C134.889 30.9642 135.476 28.3252 133.223 27.3749C131.758 26.7581 129.089 27.1915 128.411 27.5821C127.577 28.0585 127.681 28.5301 128.083 28.5729C128.491 28.6158 129.076 28.3681 128.941 28.7801C128.806 29.1922 128.52 29.1303 128.408 29.3994C128.151 30.0163 128.941 30.102 129.346 29.9353C129.751 29.7709 130.832 29.2327 131.69 29.5637C132.547 29.8948 132.42 31.0642 131.947 31.6001C131.498 32.105 130.318 33.041 127.782 32.5552C126.628 32.3337 124.484 30.5402 126.55 27.9704C128.083 26.0626 130.664 25.1409 132.818 24.1953C136.287 22.6663 136.952 19.0151 136.952 19.0151C136.952 19.0151 137.833 18.6126 138.732 19.0246C139.633 19.4391 139.324 20.0011 139.324 20.0011C139.324 20.0011 138.908 21.1991 139.309 21.997C139.849 23.0783 141.065 23.407 141.065 23.407C141.065 23.407 141.257 23.2498 141.2 22.621C141.146 21.997 141.291 21.1777 141.697 20.8038C142.102 20.4322 142.497 20.2679 142.497 20.2679" fill="#ED1C24"/>
<path d="M137.221 19.3759C137.221 19.3759 137.421 19.0996 138.146 19.2949C138.845 19.4855 138.995 19.857 138.995 19.857C138.995 19.857 137.743 23.5368 135.976 25.2635C134.209 26.9926 132.962 27.1117 133.416 26.5282C133.908 25.8994 134.731 25.0253 135.755 23.1724C136.802 21.2741 137.221 19.3712 137.221 19.3712V19.3759Z" fill="#ED1C24"/>
<path d="M137.867 0.119629C137.867 0.119629 138.774 0.298258 139.333 1.05802C139.79 1.67489 139.774 2.40607 139.774 2.40607L142.495 3.65171V0.119629H137.867Z" fill="#004280"/>
<path d="M114.326 9.60693C114.326 9.60693 116.826 11.6362 118.92 12.2149C121.014 12.7937 122.14 12.8889 122.737 12.9199C123.335 12.9532 123.522 12.9199 123.522 12.9199C123.522 12.9199 123.145 12.2459 123.491 11.5718C123.971 10.643 125.583 10.2429 126.211 11.2694C127.048 12.6293 125.216 13.9964 124.79 14.2799C123.909 14.8658 122.859 15.6946 120.105 16.7807C117.213 17.9263 114.326 18.3597 114.326 18.3597V16.9117C115.719 16.7949 117.031 16.6497 119.474 15.8828C122.236 15.011 123.301 13.8845 123.301 13.8845C123.301 13.8845 120.664 13.9821 117.613 13.0199C115.688 12.4102 114.326 11.6624 114.326 11.6624V9.60693Z" fill="#ED1C24"/>
<path d="M114.325 12.6304C114.325 12.6304 115.962 13.3496 117.7 13.7164C119.576 14.1094 121.611 14.4024 121.611 14.4024C121.611 14.4024 120.873 15.0454 118.17 15.6885C115.751 16.2625 114.322 16.3625 114.322 16.3625L114.309 15.0121C114.309 15.0121 114.863 15.0812 116.17 15.0121C118.591 14.8859 119.503 14.6596 119.503 14.6596C119.503 14.6596 117.123 14.4976 116.541 14.4024C115.972 14.3119 114.307 13.9808 114.307 13.9808L114.32 12.6304H114.325Z" fill="#F26522"/>
<path d="M142.494 23.5367C142.494 23.5367 139.992 23.389 138.129 25.0252C136.263 26.6615 135.697 27.9571 135.408 29.1766C135.12 30.396 134.619 31.9965 135.697 34.0591C136.393 35.3833 137.404 35.6763 137.981 35.7548C138.56 35.8334 139.522 35.5238 139.696 34.595C139.821 33.9281 139.6 33.3636 138.966 33.0492C138.599 32.8682 137.978 32.8896 137.978 32.8896C137.978 32.8896 137.864 31.856 138.615 31.1177C139.124 30.6199 140.169 30.3007 141.193 30.4222C142.188 30.5413 142.489 30.7413 142.489 30.7413V29.017C142.489 29.017 141.193 28.6454 139.977 28.936C138.76 29.2266 137.864 29.8625 137.285 30.6604C136.702 31.4582 136.702 31.9608 136.702 31.9608C136.702 31.9608 136.183 31.1153 136.596 29.5791C137.677 25.5563 142.487 25.3277 142.487 25.3277V23.5343L142.494 23.5367Z" fill="#004280"/>
<path d="M136.953 2.23522C136.953 2.53056 136.694 2.76873 136.371 2.76873C136.049 2.76873 135.792 2.53056 135.792 2.23522C135.792 1.93989 136.052 1.7041 136.371 1.7041C136.691 1.7041 136.953 1.94227 136.953 2.23522Z" fill="#004280"/>
<path d="M142.495 10.6469C142.466 10.6469 142.438 10.6445 142.409 10.6445C141.98 10.6445 141.635 10.9637 141.635 11.3567C141.635 11.7496 141.98 12.0688 142.409 12.0688C142.438 12.0688 142.466 12.0688 142.495 12.064" fill="#004280"/>
<path d="M135.767 7.71255C135.83 7.784 135.835 7.784 135.91 7.85069C137.02 8.86768 139.125 9.16063 140.234 8.14602C141.341 7.12903 141.427 5.61426 140.322 4.59726C140.247 4.5282 140.231 4.48532 140.154 4.42578C140.154 4.42578 139.184 4.46151 137.537 5.66904C136.368 6.52884 135.77 7.71017 135.77 7.71017L135.767 7.71255Z" fill="#F26522"/>
<path d="M131.373 48.302C131.373 48.302 131.561 44.3555 130.778 43.31C129.999 42.2644 128.596 42.7836 127.543 43.5005C126.631 44.1245 125.532 44.9105 126.314 45.9584C127.094 47.004 131.376 48.302 131.376 48.302H131.373Z" fill="#ED1C24"/>
<path d="M136.695 43.7539C136.97 42.4177 135.582 41.8556 134.275 41.658C132.971 41.4627 131.57 41.7485 131.3 43.0798C131.025 44.416 133.345 47.8266 133.345 47.8266C133.345 47.8266 136.419 45.0876 136.695 43.7515V43.7539Z" fill="#ED1C24"/>
<path d="M140.427 47.1014C141.443 46.2273 141.36 45.3913 140.224 44.3005C139.445 43.5526 138.27 42.9191 137.254 43.7932C136.238 44.6697 135.633 48.509 135.633 48.509C135.633 48.509 139.416 47.9755 140.429 47.1038L140.427 47.1014Z" fill="#ED1C24"/>
<path d="M142.302 52.0008C142.302 51.5245 142.011 51.2553 141.377 51.3077C139.81 51.434 136.617 51.9436 136.406 52.0008H142.299H142.302Z" fill="#ED1C24"/>
<path d="M135.549 51.9987C135.768 51.7177 135.929 51.3914 136.012 51.0365C136.329 49.6551 135.341 48.3285 133.806 48.0713C132.27 47.8188 130.763 48.731 130.446 50.1124C130.287 50.796 130.448 51.4652 130.841 51.9987H135.552H135.549Z" fill="#004280"/>
<path d="M134.896 51.9597C135.055 51.7573 135.169 51.5239 135.229 51.269C135.458 50.2782 134.751 49.3256 133.649 49.1445C132.547 48.9612 131.466 49.6161 131.238 50.6069C131.123 51.0976 131.24 51.5763 131.521 51.9597H134.896Z" fill="#00AEEF"/>
<path d="M123.555 51.9993H129.354C128.673 51.6349 126.049 50.6822 124.83 50.5464C124.189 50.4774 123.63 50.6893 123.555 51.1728V51.9969V51.9993Z" fill="#ED1C24"/>
<path d="M126.002 46.2858C124.801 45.8452 123.993 46.1143 123.596 46.9217L123.52 49.0891C123.596 49.6107 123.385 50.0156 123.843 50.168C125.298 50.6515 129.988 50.0156 129.988 50.0156C129.988 50.0156 127.439 46.8169 126.002 46.2858Z" fill="#ED1C24"/>
<path d="M142.558 47.9429C142.558 47.1903 141.836 46.6853 140.253 47.5356C138.965 48.2215 136.46 49.9745 136.46 49.9745C136.46 49.9745 139.661 50.9319 141.14 51.0701C142.418 51.1939 142.558 50.8891 142.558 50.3865V47.9429Z" fill="#ED1C24"/>
<path d="M118.53 9.14378C118.53 9.14378 118.892 9.73445 119.416 10.0869C119.941 10.4394 121.516 10.9015 121.516 10.9015C121.516 10.9015 121.607 10.2132 122.509 9.60345C123.008 9.26763 123.634 9.14378 123.634 9.14378C123.634 9.14378 122.963 8.82463 122.865 8.27446C122.781 7.78382 122.898 7.43848 122.898 7.43848L121.994 7.9958C121.994 7.9958 122.098 8.31018 122.218 8.53168C122.34 8.75318 122.581 8.95801 122.581 8.95801C122.581 8.95801 121.773 9.29383 121.513 9.60584C121.251 9.91784 121.17 10.1584 121.17 10.1584C121.17 10.1584 120.604 10.0774 120.183 9.74874C119.757 9.41768 119.528 8.90561 119.528 8.90561L118.53 9.13902V9.14378Z" fill="#F26522"/>
<path d="M120.252 8.6995C120.252 8.6995 120.465 9.03056 120.683 9.17108L120.907 9.30922C120.907 9.30922 120.907 9.17823 121.208 9.00436C121.512 8.8305 121.611 8.8305 121.611 8.8305C121.611 8.8305 121.483 8.73047 121.411 8.51611L121.338 8.30176L120.252 8.6995Z" fill="#F26522"/>
<path d="M131.305 2.75C131.305 2.75 129.691 3.13107 128.738 4.11949C127.784 5.10552 129.164 5.84385 129.678 5.25795C130.193 4.67204 129.686 3.15013 131.305 2.75Z" fill="#ED1C24"/>
<path d="M129.493 2.15891C127.799 2.64954 126.258 3.35453 126.258 3.35453C126.258 3.35453 126.315 3.36644 125.9 4.04761C125.487 4.72878 125.383 4.88835 125.383 4.88835C125.383 4.88835 126.606 4.63113 127.913 3.89518C129.221 3.15923 129.252 2.99489 130.262 2.65431C131.273 2.3161 131.928 2.23512 131.928 2.23512C131.928 2.23512 130.712 3.64986 130.294 4.82167C129.878 5.99347 129.311 8.08938 128.807 8.90869C128.301 9.72323 127.913 10.1329 127.913 10.1329C127.913 10.1329 127.75 9.78039 127.235 9.50173C127.638 9.36598 128.056 9.15638 128.36 8.83485C128.88 8.27991 129.065 7.58445 129.01 6.9271C128.966 6.36502 128.787 5.98871 128.407 5.56952C128.028 5.15034 127.246 4.78832 126.126 4.95028C125.263 5.07413 125.149 5.21941 125.149 5.21941C125.149 5.21941 124.889 5.62669 124.411 6.10541C123.93 6.58413 123.519 6.95092 123.519 6.95092C123.519 6.95092 123.187 7.62733 123.421 8.27039C123.616 8.80151 124.115 8.93251 124.439 8.92536C125.128 8.91107 125.481 8.54905 125.619 8.27039C125.754 7.99173 125.707 7.64162 125.51 7.43202C125.312 7.22243 125.055 7.15575 124.946 7.16527C124.754 7.17956 124.717 7.19385 124.582 7.26531C124.582 7.26531 124.808 6.76276 125.221 6.52697C125.635 6.28642 126.204 6.03634 127.048 6.24593C127.646 6.3936 128.017 6.96283 128.077 7.33437C128.173 7.94409 127.924 8.32993 127.664 8.60859C127.454 8.83724 127.014 9.12304 126.497 9.24927C126.456 9.23974 126.417 9.22784 126.373 9.22307C126.843 9.08493 127.189 8.85391 127.417 8.52999C127.742 8.07271 127.763 7.55111 127.477 7.17956C127.233 6.86756 126.991 6.71275 126.531 6.65797C126.069 6.60557 125.7 6.81992 125.7 6.81992C125.7 6.81992 126.401 6.82707 126.614 7.36772C126.77 7.76308 126.658 8.11796 126.435 8.46331C126.123 8.93965 125.172 9.19211 125.172 9.19211C124.502 9.25642 123.748 9.43981 123.153 9.83517C122.173 10.4901 122.038 11.469 122.038 11.469C122.038 11.469 120.84 11.2451 119.837 10.795C118.468 10.1853 117.626 9.3112 117.626 9.3112C117.626 9.3112 117.486 9.34692 116.834 9.41837C116.179 9.49221 115.345 9.5589 115.345 9.5589C115.345 9.5589 117.231 11.0927 119.341 11.7453C121.449 12.4003 122.81 12.4741 122.81 12.4741C122.81 12.4741 122.498 11.269 123.579 10.533C125.214 9.42314 126.77 10.3949 127.027 11.2952C127.173 11.8001 127.051 12.255 127.051 12.255C127.051 12.255 128.929 10.4044 129.73 8.66099C130.533 6.91996 130.741 5.44567 131.395 4.11191C132.05 2.77815 133.297 1.66113 133.297 1.66113C133.297 1.66113 131.19 1.67066 129.496 2.15891H129.493Z" fill="#004280"/>
<path d="M135.912 8.71146C136.099 8.8115 136.156 9.033 136.044 9.19972C135.933 9.36882 135.696 9.4236 135.509 9.32118C135.324 9.21877 135.267 8.99965 135.379 8.83055C135.491 8.66145 135.73 8.60905 135.912 8.71146Z" fill="#F26522"/>
<path d="M136.401 9.0116C136.497 9.06646 136.528 9.18096 136.468 9.26922C136.411 9.35747 136.283 9.3861 136.19 9.33123C136.093 9.28114 136.062 9.16426 136.119 9.076C136.179 8.98774 136.302 8.95912 136.401 9.0116Z" fill="#F26522"/>
<path d="M135.516 9.44535C135.697 9.54776 135.757 9.76688 135.648 9.93598C135.536 10.1027 135.297 10.1575 135.113 10.0551C134.928 9.95265 134.869 9.73354 134.983 9.56444C135.092 9.39533 135.336 9.34294 135.518 9.44535H135.516Z" fill="#F26522"/>
<path d="M136.008 9.75152C136.101 9.80638 136.135 9.92088 136.075 10.0068C136.018 10.0974 135.893 10.1236 135.797 10.0712C135.698 10.0163 135.669 9.9018 135.726 9.81354C135.784 9.72767 135.909 9.69666 136.008 9.75152Z" fill="#F26522"/>
<path d="M135.11 10.3428C135.294 10.4452 135.354 10.6643 135.242 10.8334C135.13 11.0002 134.891 11.0549 134.707 10.9549C134.525 10.8525 134.463 10.6334 134.577 10.4643C134.689 10.2976 134.93 10.2428 135.112 10.3452L135.11 10.3428Z" fill="#F26522"/>
<path d="M135.595 10.6448C135.691 10.6997 135.722 10.8142 135.665 10.9025C135.605 10.9907 135.483 11.017 135.387 10.9645C135.288 10.9096 135.259 10.7951 135.319 10.7069C135.376 10.6186 135.501 10.59 135.597 10.6425L135.595 10.6448Z" fill="#F26522"/>
<path d="M134.909 11.2222C135.094 11.3246 135.153 11.5437 135.042 11.7128C134.93 11.8796 134.691 11.9343 134.506 11.8319C134.322 11.7295 134.262 11.5104 134.376 11.3413C134.486 11.1722 134.725 11.1198 134.909 11.2222Z" fill="#F26522"/>
<path d="M135.399 11.5213C135.492 11.5738 135.524 11.6907 135.466 11.7789C135.407 11.8672 135.282 11.8934 135.185 11.8386C135.092 11.7861 135.06 11.6716 135.12 11.5833C135.178 11.4951 135.302 11.4664 135.401 11.5189L135.399 11.5213Z" fill="#F26522"/>
<path d="M134.71 12.123C134.892 12.2231 134.951 12.4446 134.84 12.6113C134.731 12.7804 134.491 12.8352 134.304 12.7304C134.123 12.6279 134.063 12.4088 134.174 12.2397C134.286 12.0706 134.525 12.0182 134.71 12.1206V12.123Z" fill="#F26522"/>
<path d="M135.2 12.4229C135.296 12.4778 135.325 12.5922 135.268 12.6781C135.208 12.7664 135.083 12.795 134.989 12.7401C134.89 12.6877 134.862 12.5732 134.922 12.4849C134.979 12.3967 135.106 12.3704 135.2 12.4229Z" fill="#F26522"/>
<path d="M134.515 12.9683C134.697 13.0683 134.754 13.2898 134.645 13.4565C134.533 13.6257 134.294 13.6804 134.109 13.578C133.925 13.4756 133.865 13.2541 133.977 13.0874C134.091 12.9183 134.328 12.8659 134.515 12.9683Z" fill="#F26522"/>
<path d="M135.002 13.27C135.095 13.3225 135.127 13.4394 135.072 13.5252C135.012 13.6135 134.887 13.6397 134.791 13.5873C134.692 13.5324 134.663 13.4179 134.723 13.3296C134.778 13.2414 134.905 13.2151 135.002 13.2676V13.27Z" fill="#F26522"/>
<path d="M134.121 13.8432C134.305 13.9456 134.365 14.1623 134.253 14.3314C134.139 14.5005 133.902 14.5553 133.718 14.4505C133.533 14.3505 133.476 14.129 133.588 13.9599C133.697 13.7932 133.939 13.7384 134.121 13.8408V13.8432Z" fill="#F26522"/>
<path d="M134.611 14.1415C134.707 14.1963 134.738 14.3108 134.681 14.3991C134.621 14.4874 134.496 14.516 134.402 14.4611C134.306 14.4086 134.275 14.2941 134.335 14.2059C134.392 14.1176 134.517 14.089 134.613 14.1415H134.611Z" fill="#F26522"/>
<path d="M133.925 14.7388C134.109 14.8412 134.169 15.0603 134.057 15.2294C133.945 15.3985 133.706 15.4509 133.522 15.3509C133.337 15.2485 133.278 15.0294 133.389 14.8603C133.501 14.6935 133.74 14.6388 133.925 14.7412V14.7388Z" fill="#F26522"/>
<path d="M134.409 15.0372C134.506 15.0897 134.537 15.2066 134.48 15.2925C134.422 15.3831 134.295 15.4093 134.201 15.3569C134.102 15.302 134.074 15.1875 134.131 15.0992C134.188 15.011 134.316 14.9824 134.409 15.0372Z" fill="#F26522"/>
<path d="M133.724 15.7062C133.909 15.8086 133.968 16.0278 133.857 16.1969C133.745 16.366 133.506 16.4184 133.321 16.3159C133.14 16.2159 133.077 15.9944 133.192 15.8277C133.303 15.6586 133.542 15.6038 133.727 15.7086L133.724 15.7062Z" fill="#F26522"/>
<path d="M134.214 16.0065C134.308 16.0589 134.341 16.1758 134.284 16.2617C134.224 16.35 134.099 16.3786 134.003 16.3237C133.907 16.2712 133.876 16.1567 133.933 16.0685C133.993 15.9802 134.12 15.9516 134.214 16.0065Z" fill="#F26522"/>
<path d="M133.433 16.6016C133.617 16.704 133.674 16.9231 133.565 17.0922C133.453 17.2613 133.214 17.3137 133.03 17.2113C132.845 17.1089 132.786 16.8898 132.897 16.7207C133.006 16.5516 133.248 16.4992 133.433 16.6016Z" fill="#F26522"/>
<path d="M133.92 16.9015C134.014 16.954 134.048 17.0708 133.988 17.1567C133.931 17.245 133.806 17.2736 133.71 17.2211C133.613 17.1663 133.582 17.0518 133.642 16.9635C133.702 16.8752 133.824 16.8466 133.923 16.9015H133.92Z" fill="#F26522"/>
<path d="M133.011 17.5731C133.193 17.6755 133.252 17.8947 133.143 18.0638C133.031 18.2305 132.792 18.2853 132.608 18.1828C132.423 18.0804 132.366 17.8613 132.478 17.6946C132.59 17.5255 132.829 17.4707 133.011 17.5731Z" fill="#F26522"/>
<path d="M133.5 17.8755C133.596 17.9279 133.627 18.0424 133.568 18.1331C133.51 18.2213 133.385 18.2476 133.289 18.1951C133.193 18.1402 133.164 18.0281 133.219 17.9375C133.279 17.8516 133.401 17.823 133.5 17.8755Z" fill="#F26522"/>
<path d="M132.649 18.4149C132.831 18.5173 132.891 18.7365 132.779 18.9056C132.667 19.0747 132.428 19.1294 132.244 19.0246C132.059 18.9222 132 18.7031 132.114 18.534C132.226 18.3673 132.462 18.3149 132.649 18.4149Z" fill="#F26522"/>
<path d="M133.135 18.7164C133.232 18.7688 133.263 18.8857 133.203 18.9716C133.143 19.0622 133.018 19.0885 132.922 19.036C132.826 18.9835 132.797 18.8666 132.852 18.7784C132.911 18.6925 133.036 18.6615 133.133 18.7164H133.135Z" fill="#F26522"/>
<path d="M132.27 19.312C132.455 19.4145 132.514 19.6336 132.403 19.8027C132.291 19.9694 132.049 20.0218 131.867 19.9218C131.683 19.8194 131.626 19.6002 131.735 19.4311C131.847 19.262 132.088 19.2096 132.27 19.312Z" fill="#F26522"/>
<path d="M132.76 19.6118C132.854 19.6667 132.885 19.7812 132.828 19.867C132.771 19.9577 132.643 19.9815 132.547 19.929C132.453 19.8742 132.419 19.7597 132.479 19.6714C132.537 19.5832 132.664 19.5569 132.76 19.6094V19.6118Z" fill="#F26522"/>
<path d="M131.844 20.0298C132.013 20.1512 132.044 20.3727 131.912 20.5299C131.779 20.6847 131.535 20.7133 131.366 20.5918C131.197 20.468 131.166 20.2441 131.301 20.0917C131.431 19.9345 131.678 19.9083 131.844 20.0298Z" fill="#F26522"/>
<path d="M132.292 20.3764C132.383 20.4408 132.399 20.5577 132.329 20.6388C132.261 20.7199 132.133 20.7366 132.042 20.6722C131.954 20.6102 131.936 20.4909 132.006 20.4122C132.073 20.3311 132.201 20.3168 132.29 20.3788L132.292 20.3764Z" fill="#F26522"/>
<path d="M131.316 20.8445C131.485 20.9635 131.516 21.1874 131.383 21.3446C131.251 21.4994 131.007 21.528 130.835 21.4065C130.666 21.2875 130.638 21.0612 130.767 20.9064C130.897 20.7516 131.144 20.723 131.313 20.8445H131.316Z" fill="#F26522"/>
<path d="M131.763 21.1964C131.852 21.2585 131.867 21.3777 131.797 21.4588C131.727 21.5399 131.602 21.5542 131.508 21.4922C131.42 21.4302 131.407 21.3133 131.474 21.2298C131.545 21.1511 131.672 21.1344 131.763 21.1988V21.1964Z" fill="#F26522"/>
<path d="M130.789 21.5591C130.938 21.702 130.93 21.9282 130.774 22.064C130.618 22.1974 130.371 22.1926 130.226 22.0497C130.077 21.9044 130.085 21.6805 130.239 21.5448C130.397 21.409 130.641 21.4162 130.789 21.5591Z" fill="#F26522"/>
<path d="M131.175 21.9684C131.253 22.0424 131.248 22.1617 131.167 22.2332C131.084 22.3024 130.956 22.3 130.881 22.2261C130.803 22.1497 130.808 22.0352 130.889 21.9637C130.969 21.8921 131.099 21.8969 131.177 21.9708L131.175 21.9684Z" fill="#F26522"/>
<path d="M130.236 22.273C130.382 22.4159 130.374 22.6421 130.218 22.7779C130.065 22.9113 129.818 22.9065 129.67 22.7636C129.521 22.6183 129.527 22.3921 129.685 22.2587C129.841 22.1253 130.085 22.1301 130.236 22.273Z" fill="#F26522"/>
<path d="M130.618 22.6819C130.696 22.7583 130.691 22.8751 130.61 22.9467C130.529 23.0159 130.399 23.0135 130.321 22.9395C130.245 22.8632 130.251 22.7463 130.331 22.6748C130.412 22.6032 130.542 22.6056 130.618 22.6795V22.6819Z" fill="#F26522"/>
<path d="M129.369 22.9229C129.517 23.0658 129.512 23.292 129.356 23.4278C129.2 23.5636 128.953 23.5564 128.805 23.4135C128.66 23.2706 128.668 23.0444 128.821 22.9086C128.979 22.7752 129.226 22.78 129.372 22.9229H129.369Z" fill="#F26522"/>
<path d="M129.754 23.3316C129.832 23.4055 129.826 23.5248 129.746 23.5939C129.662 23.6655 129.532 23.6631 129.457 23.5868C129.381 23.5105 129.384 23.3936 129.465 23.3244C129.545 23.2528 129.675 23.2552 129.754 23.3316Z" fill="#F26522"/>
<path d="M128.527 23.5749C128.672 23.7178 128.667 23.9441 128.508 24.0774C128.353 24.2132 128.106 24.2084 127.96 24.0632C127.812 23.9203 127.82 23.694 127.973 23.5582C128.129 23.4249 128.376 23.4296 128.527 23.5749Z" fill="#F26522"/>
<path d="M128.909 23.984C128.987 24.0603 128.982 24.1772 128.899 24.2488C128.818 24.3204 128.691 24.3156 128.613 24.2416C128.535 24.1653 128.54 24.0484 128.623 23.9769C128.704 23.9053 128.831 23.9101 128.909 23.984Z" fill="#F26522"/>
<path d="M127.715 24.2193C127.86 24.3622 127.855 24.5884 127.699 24.7242C127.543 24.86 127.296 24.8528 127.148 24.7099C127.003 24.567 127.008 24.3407 127.164 24.2074C127.322 24.0716 127.566 24.0788 127.715 24.2217V24.2193Z" fill="#F26522"/>
<path d="M128.097 24.6309C128.175 24.7049 128.17 24.8241 128.089 24.8933C128.009 24.9649 127.878 24.9601 127.8 24.8862C127.725 24.8074 127.728 24.6906 127.811 24.6214C127.891 24.5498 128.022 24.5546 128.1 24.6285L128.097 24.6309Z" fill="#F26522"/>
<path d="M126.796 24.8721C126.942 25.0174 126.937 25.2413 126.781 25.377C126.622 25.5128 126.381 25.508 126.23 25.3627C126.082 25.2198 126.09 24.9936 126.243 24.8578C126.399 24.7244 126.646 24.7292 126.794 24.8721H126.796Z" fill="#F26522"/>
<path d="M127.178 25.2861C127.256 25.36 127.25 25.4793 127.167 25.5484C127.089 25.62 126.959 25.6152 126.881 25.5389C126.803 25.465 126.808 25.3481 126.889 25.2741C126.969 25.205 127.1 25.2097 127.178 25.2837V25.2861Z" fill="#F26522"/>
<path d="M125.871 25.5209C126.022 25.6614 126.011 25.8876 125.856 26.0234C125.697 26.1568 125.45 26.152 125.305 26.0091C125.157 25.8662 125.164 25.6399 125.32 25.5066C125.476 25.3708 125.723 25.3756 125.871 25.5209Z" fill="#F26522"/>
<path d="M126.254 25.9317C126.332 26.0057 126.326 26.1249 126.246 26.1941C126.165 26.2657 126.035 26.2633 125.957 26.1869C125.879 26.1106 125.881 25.9913 125.965 25.9246C126.048 25.8554 126.175 25.8554 126.254 25.9317Z" fill="#F26522"/>
<path d="M125.149 26.1323C125.295 26.2752 125.292 26.5015 125.134 26.6372C124.975 26.7706 124.731 26.7658 124.583 26.6229C124.435 26.4777 124.44 26.2538 124.598 26.118C124.757 25.9823 125.001 25.9894 125.149 26.1323Z" fill="#F26522"/>
<path d="M125.534 26.5406C125.609 26.6146 125.606 26.7339 125.523 26.803C125.442 26.8746 125.312 26.8698 125.234 26.7959C125.154 26.7196 125.161 26.6027 125.242 26.5311C125.323 26.4619 125.45 26.4643 125.531 26.5383L125.534 26.5406Z" fill="#F26522"/>
<path d="M124.429 26.9648C124.572 27.1077 124.566 27.334 124.413 27.4697C124.255 27.6055 124.008 27.5984 123.862 27.4531C123.711 27.3102 123.722 27.0839 123.878 26.9505C124.031 26.8148 124.281 26.8219 124.429 26.9648Z" fill="#F26522"/>
<path d="M124.808 27.3751C124.886 27.4514 124.881 27.5683 124.8 27.6398C124.717 27.7114 124.587 27.7066 124.511 27.6327C124.436 27.5564 124.439 27.4395 124.519 27.3703C124.603 27.2987 124.73 27.3011 124.808 27.3775V27.3751Z" fill="#F26522"/>
<path d="M123.706 32.2745C123.8 32.1744 123.967 32.1624 124.076 32.2483C124.185 32.3342 124.196 32.4868 124.105 32.587C124.008 32.6872 123.842 32.6991 123.732 32.6133C123.621 32.5274 123.61 32.3771 123.704 32.2745H123.706Z" fill="#F26522"/>
<path d="M123.976 32.0102C124.025 31.9577 124.111 31.9529 124.168 31.9983C124.226 32.0436 124.231 32.1223 124.181 32.1748C124.132 32.2273 124.046 32.232 123.989 32.1867C123.932 32.1438 123.926 32.0627 123.976 32.0102Z" fill="#F26522"/>
<path d="M124.086 32.7379C124.177 32.6377 124.346 32.6258 124.456 32.7117C124.565 32.7976 124.578 32.9526 124.482 33.0504C124.388 33.1506 124.221 33.1625 124.112 33.0766C124.003 32.9908 123.99 32.8405 124.086 32.7379Z" fill="#F26522"/>
<path d="M124.357 32.4738C124.406 32.4189 124.495 32.4141 124.549 32.4595C124.607 32.5048 124.614 32.5859 124.565 32.636C124.516 32.6885 124.43 32.6932 124.372 32.6503C124.315 32.605 124.307 32.5263 124.357 32.4738Z" fill="#F26522"/>
<path d="M124.522 33.2044C124.618 33.1019 124.782 33.0923 124.894 33.1758C125.003 33.2641 125.016 33.4144 124.922 33.5145C124.829 33.6147 124.662 33.6267 124.553 33.5408C124.443 33.4525 124.43 33.3022 124.522 33.2044Z" fill="#F26522"/>
<path d="M124.798 32.9389C124.847 32.8864 124.936 32.8817 124.99 32.927C125.048 32.9723 125.053 33.051 125.006 33.1035C124.954 33.1584 124.868 33.1631 124.811 33.1154C124.754 33.0725 124.748 32.9914 124.795 32.9389H124.798Z" fill="#F26522"/>
<path d="M125.05 33.5537C125.147 33.4511 125.311 33.4439 125.422 33.5274C125.529 33.6157 125.542 33.7684 125.446 33.8685C125.355 33.9687 125.188 33.9783 125.076 33.8948C124.967 33.8089 124.954 33.6562 125.048 33.5561L125.05 33.5537Z" fill="#F26522"/>
<path d="M125.323 33.2905C125.372 33.238 125.46 33.2308 125.518 33.2785C125.575 33.3215 125.583 33.4026 125.531 33.4527C125.484 33.5075 125.398 33.5123 125.338 33.467C125.284 33.4216 125.276 33.3405 125.323 33.2905Z" fill="#F26522"/>
<path d="M125.572 33.906C125.666 33.8058 125.832 33.7939 125.942 33.8821C126.051 33.968 126.064 34.1207 125.97 34.2208C125.876 34.321 125.71 34.333 125.601 34.2471C125.491 34.1612 125.478 34.0086 125.572 33.9084V33.906Z" fill="#F26522"/>
<path d="M125.846 33.6414C125.893 33.589 125.979 33.5818 126.036 33.6271C126.093 33.6748 126.101 33.7535 126.052 33.806C126.002 33.8585 125.916 33.8633 125.856 33.818C125.799 33.7726 125.794 33.6939 125.846 33.6414Z" fill="#F26522"/>
<path d="M126.205 34.2109C126.299 34.1083 126.465 34.0988 126.577 34.1846C126.684 34.2729 126.697 34.4232 126.603 34.5234C126.51 34.6259 126.343 34.6331 126.231 34.5472C126.122 34.459 126.111 34.3111 126.205 34.2085V34.2109Z" fill="#F26522"/>
<path d="M126.479 33.9457C126.528 33.8933 126.614 33.8885 126.669 33.9338C126.728 33.9767 126.734 34.0578 126.684 34.1103C126.635 34.1628 126.549 34.17 126.489 34.1246C126.432 34.0793 126.426 33.9982 126.476 33.9481L126.479 33.9457Z" fill="#F26522"/>
<path d="M126.848 34.502C126.911 34.3828 127.067 34.3351 127.197 34.3923C127.327 34.4519 127.382 34.5975 127.317 34.7143C127.254 34.8336 127.096 34.8837 126.968 34.8264C126.838 34.7668 126.781 34.6237 126.848 34.5044V34.502Z" fill="#F26522"/>
<path d="M127.039 34.1841C127.07 34.1221 127.154 34.0958 127.224 34.1268C127.291 34.1555 127.317 34.2318 127.286 34.2938C127.252 34.3534 127.169 34.3821 127.101 34.3511C127.034 34.3224 127.005 34.2461 127.039 34.1841Z" fill="#F26522"/>
<path d="M127.462 34.6579C127.525 34.5386 127.683 34.4885 127.811 34.5481C127.941 34.6054 127.996 34.7533 127.931 34.8702C127.868 34.9894 127.709 35.0395 127.579 34.9823C127.449 34.9226 127.397 34.7771 127.462 34.6602V34.6579Z" fill="#F26522"/>
<path d="M127.656 34.3394C127.687 34.2797 127.771 34.2511 127.838 34.2797C127.903 34.3107 127.935 34.3871 127.903 34.4491C127.87 34.5135 127.784 34.5374 127.719 34.504C127.648 34.4777 127.622 34.399 127.656 34.3394Z" fill="#F26522"/>
<path d="M128.17 34.8191C128.199 34.6903 128.337 34.6045 128.48 34.6307C128.623 34.6569 128.714 34.7834 128.686 34.9146C128.657 35.0458 128.516 35.1292 128.376 35.103C128.235 35.0768 128.144 34.9503 128.173 34.8191H128.17Z" fill="#F26522"/>
<path d="M128.27 34.4685C128.283 34.3993 128.356 34.3588 128.431 34.3707C128.504 34.385 128.551 34.4494 128.538 34.5186C128.522 34.5878 128.449 34.6307 128.376 34.6164C128.304 34.6021 128.257 34.5377 128.272 34.4685H128.27Z" fill="#F26522"/>
<path d="M128.83 34.8422C128.859 34.711 128.997 34.6275 129.14 34.6537C129.278 34.6824 129.369 34.8088 129.343 34.9352C129.314 35.0664 129.177 35.1523 129.033 35.1237C128.893 35.0974 128.802 34.971 128.828 34.8398L128.83 34.8422Z" fill="#F26522"/>
<path d="M128.933 34.4935C128.943 34.4267 129.019 34.3814 129.094 34.3957C129.17 34.41 129.217 34.4744 129.201 34.5412C129.186 34.6104 129.115 34.6533 129.04 34.639C128.967 34.6271 128.917 34.5603 128.936 34.4911L128.933 34.4935Z" fill="#F26522"/>
<path d="M129.512 34.791C129.499 34.6598 129.608 34.5429 129.754 34.5333C129.897 34.5238 130.024 34.624 130.035 34.7552C130.045 34.8864 129.936 35.0033 129.79 35.0152C129.647 35.0247 129.519 34.9269 129.512 34.7933V34.791Z" fill="#F26522"/>
<path d="M129.5 34.4271C129.495 34.3603 129.552 34.2983 129.63 34.2911C129.703 34.2887 129.771 34.3388 129.776 34.408C129.784 34.4772 129.724 34.5368 129.651 34.5416C129.576 34.5487 129.511 34.4962 129.503 34.4271H129.5Z" fill="#F26522"/>
<path d="M130.162 34.6821C130.151 34.5509 130.258 34.434 130.401 34.4245C130.547 34.4149 130.674 34.5151 130.685 34.6463C130.695 34.7775 130.588 34.8944 130.44 34.9039C130.297 34.9135 130.169 34.8157 130.162 34.6821Z" fill="#F26522"/>
<path d="M130.15 34.316C130.145 34.2492 130.203 34.1872 130.275 34.1824C130.351 34.1777 130.419 34.2301 130.424 34.2969C130.429 34.3661 130.372 34.4257 130.299 34.4329C130.223 34.44 130.156 34.3876 130.15 34.316Z" fill="#F26522"/>
<path d="M130.799 34.5537C130.789 34.4225 130.898 34.3056 131.041 34.296C131.187 34.2865 131.309 34.3867 131.322 34.5179C131.333 34.6491 131.223 34.766 131.078 34.7755C130.934 34.785 130.81 34.6849 130.797 34.5537H130.799Z" fill="#F26522"/>
<path d="M130.789 34.1925C130.784 34.1233 130.844 34.0637 130.917 34.0589C130.992 34.0541 131.057 34.1042 131.062 34.1734C131.067 34.2426 131.01 34.3046 130.937 34.307C130.862 34.3118 130.797 34.2617 130.789 34.1925Z" fill="#F26522"/>
<path d="M131.523 34.3637C131.461 34.2421 131.518 34.1013 131.65 34.0441C131.781 33.9892 131.937 34.0393 131.997 34.1633C132.059 34.2802 132.002 34.4281 131.869 34.483C131.736 34.5378 131.583 34.483 131.523 34.3661V34.3637Z" fill="#F26522"/>
<path d="M131.371 34.0267C131.337 33.9647 131.371 33.8883 131.436 33.8573C131.506 33.8287 131.587 33.8573 131.62 33.9194C131.652 33.9838 131.62 34.0601 131.553 34.0863C131.485 34.1173 131.404 34.0887 131.371 34.0267Z" fill="#F26522"/>
<path d="M132.183 33.9586C132.12 33.8393 132.18 33.6962 132.31 33.6413C132.44 33.5841 132.596 33.6366 132.659 33.7582C132.719 33.8799 132.661 34.0206 132.531 34.0779C132.401 34.1327 132.245 34.0802 132.185 33.9586H132.183Z" fill="#F26522"/>
<path d="M132.036 33.6243C132.004 33.5599 132.033 33.486 132.103 33.455C132.171 33.4264 132.252 33.455 132.285 33.517C132.314 33.5766 132.285 33.6506 132.218 33.6816C132.15 33.7126 132.069 33.6864 132.036 33.622V33.6243Z" fill="#F26522"/>
<path d="M131.451 29.9751C130.846 29.6321 130.287 30.137 129.656 30.3609C128.975 30.6015 128.034 30.5062 127.567 30.1727C126.486 29.4011 126.836 28.415 126.836 28.415C126.836 28.415 126.376 28.7913 126.202 29.482C125.974 30.3919 126.176 31.7256 127.948 32.2282C129.271 32.6045 130.791 32.0138 131.171 31.728C131.75 31.285 132.223 30.4109 131.454 29.9774L131.451 29.9751Z" fill="#004280"/>
<path d="M128.71 26.8304C128.598 26.9757 129.544 26.4517 131.277 26.5279C132.059 26.566 132.873 26.7137 132.873 26.7137C132.873 26.7137 133.244 26.3493 134.078 25.2418C135.157 23.8152 135.837 22.3433 135.837 22.3433C134.642 23.9485 132.688 24.8393 131.152 25.5109C129.913 26.054 128.975 26.4827 128.71 26.828V26.8304Z" fill="#004280"/>
<path d="M139.333 22.9504C138.964 22.636 138.686 21.9453 138.686 21.9453C138.686 21.9453 138.003 23.4148 136.964 24.7772C136.342 25.5893 135.555 26.3443 134.833 26.7802C134.323 27.0874 134.043 27.0898 134.043 27.0898C134.043 27.0898 134.516 27.5138 134.711 27.8901C134.906 28.2664 135.033 28.6379 135.033 28.6379C135.033 28.6379 135.68 26.9469 137.203 25.4012C138.775 23.8007 140.318 23.5363 140.318 23.5363C140.318 23.5363 139.702 23.2719 139.333 22.9528V22.9504Z" fill="#004280"/>
<path d="M137.971 6.26724C137.329 6.70071 136.768 6.3506 136.763 6.34584L137.392 5.77423L138.138 5.24072C138.371 5.50033 138.361 6.00525 137.971 6.26724Z" fill="#ED1C24"/>
<path d="M137.05 6.53613C137.05 6.53613 136.777 6.90054 136.367 7.13633C135.956 7.3745 135.86 7.70556 136.125 7.7913C136.39 7.87942 136.777 7.61743 136.915 7.23159C137.053 6.84576 137.05 6.53613 137.05 6.53613Z" fill="#ED1C24"/>
<path d="M137.393 6.53613C137.393 6.53613 137.234 6.98866 136.985 7.38164C136.733 7.77462 136.85 8.04614 137.164 7.95087C137.473 7.8556 137.684 7.45547 137.577 7.12442C137.468 6.79336 137.393 6.53613 137.393 6.53613Z" fill="#ED1C24"/>
<path d="M137.858 6.37305C137.858 6.37305 137.907 6.79461 137.829 7.21141C137.754 7.62821 138.001 7.79017 138.276 7.58296C138.549 7.37813 138.583 6.97324 138.315 6.7565C138.055 6.53977 137.855 6.37305 137.855 6.37305H137.858Z" fill="#ED1C24"/>
<path d="M138.159 6.20655C138.159 6.20655 138.468 6.4614 138.655 6.77817C138.839 7.09732 139.182 7.06635 139.32 6.7734C139.458 6.48045 139.24 6.19465 138.847 6.20179C138.458 6.20894 138.161 6.20655 138.161 6.20655H138.159Z" fill="#ED1C24"/>
<path d="M138.331 5.84412C138.331 5.84412 138.771 5.90128 139.111 6.06086C139.457 6.22043 139.787 6.0418 139.787 5.756C139.781 5.46781 139.42 5.34873 139.028 5.52974C138.633 5.70837 138.331 5.84174 138.331 5.84174V5.84412Z" fill="#ED1C24"/>
<path d="M138.277 5.44367C138.277 5.44367 138.781 5.34125 139.207 5.31981C139.633 5.29838 139.888 5.01972 139.753 4.79346C139.617 4.56958 139.191 4.62912 138.874 4.93874C138.557 5.24836 138.277 5.44367 138.277 5.44367Z" fill="#ED1C24"/>
<path d="M133.504 47.4962C133.504 47.4962 133.395 42.4422 133.545 42.1826C133.738 41.8491 134.273 42.0325 134.27 42.3421C134.27 42.5398 133.504 47.4962 133.504 47.4962Z" fill="#F47721"/>
<path d="M133.403 47.4722C133.403 47.4722 132.122 42.5563 132.205 42.2729C132.316 41.9085 132.883 41.9847 132.956 42.2872C132.997 42.4777 133.403 47.4722 133.403 47.4722Z" fill="#F47721"/>
<path d="M133.631 47.3951C133.631 47.3951 135.673 42.6959 135.631 42.4078C135.577 42.0314 135.005 42.0314 134.886 42.322C134.813 42.503 133.631 47.3951 133.631 47.3951Z" fill="#F47721"/>
<path d="M135.847 48.346C135.847 48.346 139.261 44.7282 139.529 44.6425C139.879 44.5329 140.085 45.014 139.872 45.2308C139.739 45.3641 135.847 48.346 135.847 48.346Z" fill="#F47721"/>
<path d="M135.804 48.2671C135.804 48.2671 138.393 43.9776 138.639 43.8347C138.959 43.6513 139.26 44.0753 139.094 44.3325C138.99 44.4968 135.804 48.2671 135.804 48.2671Z" fill="#F47721"/>
<path d="M136.003 48.3575C136.003 48.3575 140.503 46.3902 140.675 46.1592C140.901 45.8615 140.545 45.4899 140.272 45.6161C140.1 45.6947 136.003 48.3575 136.003 48.3575Z" fill="#F47721"/>
<path d="M136.85 49.8381C136.85 49.8381 141.932 48.7425 142.205 48.8187C142.559 48.9188 142.418 49.4189 142.106 49.4785C141.912 49.5166 136.852 49.8381 136.852 49.8381H136.85Z" fill="#F47721"/>
<path d="M136.869 49.7511C136.869 49.7511 141.71 47.6695 142.001 47.6861C142.378 47.71 142.35 48.2125 142.051 48.3363C141.864 48.4102 136.872 49.7511 136.872 49.7511H136.869Z" fill="#F47721"/>
<path d="M136.972 49.9277C136.972 49.9277 141.878 50.7566 142.163 50.6661C142.535 50.5446 142.488 50.0492 142.184 50.0087C141.995 49.9801 136.972 49.9301 136.972 49.9301V49.9277Z" fill="#F47721"/>
<path d="M131.225 48.1459C131.225 48.1459 127.704 44.2542 127.644 43.9684C127.566 43.5944 128.112 43.4349 128.323 43.6778C128.455 43.8326 131.225 48.1483 131.225 48.1483V48.1459Z" fill="#F47721"/>
<path d="M131.132 48.1824C131.132 48.1824 126.785 45.0671 126.66 44.798C126.501 44.4479 126.995 44.1835 127.255 44.3812C127.419 44.505 131.129 48.18 131.129 48.18L131.132 48.1824Z" fill="#F47721"/>
<path d="M131.253 47.9911C131.253 47.9911 129.653 43.1515 129.424 42.949C129.128 42.6847 128.678 43.0134 128.785 43.3063C128.852 43.4921 131.251 47.9911 131.251 47.9911H131.253Z" fill="#F47721"/>
<path d="M129.633 49.9264C129.633 49.9264 124.34 48.4974 124.114 48.2878C123.825 48.0186 124.181 47.6042 124.501 47.6995C124.701 47.759 129.633 49.9264 129.633 49.9264Z" fill="#F47721"/>
<path d="M129.574 50.0084C129.574 50.0084 124.07 49.644 123.802 49.482C123.457 49.2748 123.706 48.8032 124.047 48.8318C124.255 48.8509 129.574 50.0084 129.574 50.0084Z" fill="#F47721"/>
<path d="M129.561 49.7844C129.561 49.7844 125.289 46.5834 124.972 46.531C124.567 46.4643 124.395 46.9644 124.663 47.155C124.829 47.2765 129.561 49.7844 129.561 49.7844Z" fill="#F47721"/>
<path d="M129.205 51.9231C129.205 51.9231 124.317 50.9227 124.039 50.9966C123.678 51.0918 123.753 51.5587 124.057 51.6134C124.245 51.6468 129.205 51.9231 129.205 51.9231Z" fill="#F47721"/>
<path d="M142.496 20.7681V23.1665C142.496 23.1665 142.324 23.1307 142.015 23.1665C141.711 23.2022 141.49 23.2736 141.49 23.2736C141.49 23.2736 141.607 23.1712 141.563 22.6234C141.519 22.078 141.591 21.4111 141.833 21.1563C142.096 20.8848 142.493 20.7704 142.493 20.7704L142.496 20.7681Z" fill="#004280"/>
<path d="M142.435 45.777C142.435 45.777 140.05 41.085 132.974 41.0683C127.806 41.0564 125.54 43.7811 125.54 43.7811C125.54 43.7811 125.163 41.5256 126.462 40.985C126.462 40.985 123.16 42.1163 121.294 39.0201C121.294 39.0201 122.949 36.5597 126.301 37.3767C126.301 37.3767 122.723 35.8238 122.84 32.9038C122.84 32.9038 125.296 37.1861 133.813 37.9697C140.268 38.5628 142.913 43.1333 142.438 45.7817L142.435 45.777Z" fill="#004280"/>
<path d="M142.046 44.609C142.046 44.609 140.084 40.5934 132.881 40.4433C132.881 40.4433 128.326 40.4672 126.076 42.6083C126.076 42.6083 128.17 39.8741 133.695 40.098C139.214 40.3219 141.126 42.9132 142.046 44.609Z" fill="#00AEEF"/>
<path d="M122.69 41.9159C122.69 41.9159 123.334 41.1251 125.246 41.6967C125.246 41.6967 125.272 43.3377 122.69 43.8689V41.9159Z" fill="#ED1C24"/>
<path d="M128.92 36.352C128.92 36.352 133.862 38.779 138.74 36.6474C138.74 36.6474 137.027 35.5518 135.671 36.3235C135.671 36.3235 136.003 35.0278 134.541 33.332C134.541 33.332 132.625 34.6253 132.407 36.0877C132.407 36.0877 131.417 35.054 128.92 36.3544V36.352Z" fill="#F26522"/>
<path d="M130.083 36.4122C130.083 36.4122 134.121 37.9793 137.704 36.6789C137.704 36.6789 136.158 36.274 135.184 36.8266C135.184 36.8266 135.428 35.4666 134.378 34.252C134.378 34.252 133.053 35.1999 132.926 36.7075C132.926 36.7075 131.536 35.8263 130.083 36.4145V36.4122Z" fill="#ED1C24"/>
<path d="M123.811 43.3652C123.811 43.3652 124.858 43.52 125.281 44.1178C125.708 44.7157 125.479 45.5993 125.876 45.9113C125.876 45.9113 125.336 45.6517 124.432 45.7041C122.899 45.7898 122.561 44.4298 122.561 43.4676C122.561 42.5054 123.808 43.3652 123.808 43.3652H123.811Z" fill="#ED1C24"/>
<path d="M122.775 44.581C122.775 44.581 123.269 45.4884 124.407 45.3884C125.062 45.3289 125.444 45.5861 125.444 45.5861C125.444 45.5861 124.947 45.1264 124.436 45.1002C123.926 45.074 123.03 44.9144 122.775 44.5786V44.581Z" fill="#F26522"/>
<path d="M124.963 41.9224C124.963 41.9224 124.669 42.9251 123.323 43.3585C123.323 43.3585 123.934 42.3725 124.963 41.9224Z" fill="#F26522"/>
<path d="M122.991 41.945C122.991 41.945 124.129 41.502 124.977 41.9616C124.977 41.9616 123.55 41.964 122.9 42.2903L122.991 41.945Z" fill="#F26522"/>
<path d="M122.654 38.0992C122.654 38.0992 125.509 37.1013 128.175 38.5374C128.175 38.5374 125.507 37.4085 121.9 38.697L122.654 38.0968V38.0992Z" fill="#00AEEF"/>
<path d="M122.844 39.919C122.844 39.919 124.157 41.1122 126.768 40.5573C126.768 40.5573 123.725 40.8335 122.636 39.2378L122.842 39.919H122.844Z" fill="#00AEEF"/>
<path d="M125.633 12.1828C125.633 12.5567 125.306 12.8568 124.898 12.8568C124.49 12.8568 124.165 12.5567 124.165 12.1828C124.165 11.8088 124.495 11.5063 124.898 11.5063C125.3 11.5063 125.633 11.8088 125.633 12.1828Z" fill="#F47721"/>
<path d="M131.041 9.05957C131.041 9.05957 130.706 9.5383 131.117 9.84315C131.532 10.1528 132.013 9.7074 132.109 9.42873C132.109 9.42873 131.641 9.74074 131.298 9.53353C130.953 9.32394 131.044 9.05957 131.044 9.05957H131.041Z" fill="#ED1C24"/>
<path d="M131.367 9.80072C131.367 9.80072 131.055 10.2461 131.437 10.5319C131.827 10.8225 132.276 10.4033 132.362 10.1437C132.362 10.1437 131.926 10.4366 131.603 10.2413C131.281 10.046 131.367 9.79834 131.367 9.79834V9.80072Z" fill="#ED1C24"/>
<path d="M130.243 11.397C130.243 11.397 129.676 12.202 130.368 12.7188C131.072 13.2428 131.883 12.4878 132.041 12.0186C132.041 12.0186 131.254 12.5473 130.672 12.1948C130.087 11.8424 130.243 11.397 130.243 11.397Z" fill="#ED1C24"/>
<path d="M128.59 11.7666C128.59 11.7666 127.995 12.6169 128.722 13.1599C129.465 13.7125 130.32 12.9193 130.489 12.424C130.489 12.424 129.658 12.9813 129.042 12.6097C128.426 12.2382 128.59 11.7666 128.59 11.7666Z" fill="#ED1C24"/>
<path d="M129.846 12.9517C129.846 12.9517 129.251 13.7996 129.979 14.345C130.722 14.8999 131.577 14.1044 131.746 13.609C131.746 13.609 130.914 14.1663 130.301 13.7948C129.683 13.4232 129.846 12.9517 129.846 12.9517Z" fill="#ED1C24"/>
<path d="M127.721 13.1626C127.721 13.1626 127.066 14.0962 127.867 14.6917C128.68 15.299 129.618 14.4273 129.803 13.8843C129.803 13.8843 128.893 14.4964 128.218 14.0867C127.539 13.6794 127.721 13.1626 127.721 13.1626Z" fill="#ED1C24"/>
<path d="M126.46 14.1386C126.46 14.1386 125.805 15.0722 126.608 15.6677C127.421 16.275 128.359 15.4033 128.544 14.8579C128.544 14.8579 127.634 15.47 126.959 15.0627C126.283 14.6531 126.463 14.1362 126.463 14.1362L126.46 14.1386Z" fill="#ED1C24"/>
<path d="M128.626 14.7583C128.626 14.7583 127.971 15.6896 128.774 16.2874C129.587 16.8947 130.528 16.0206 130.71 15.48C130.71 15.48 129.8 16.0897 129.122 15.6824C128.444 15.2728 128.626 14.7583 128.626 14.7583Z" fill="#ED1C24"/>
<path d="M125.011 15.0991C125.011 15.0991 123.972 16.4543 125.17 16.9878C126.235 17.4618 127.079 16.4686 127.334 15.7755C127.334 15.7755 126.547 16.7044 125.687 16.159C124.824 15.6136 125.008 15.1015 125.008 15.1015L125.011 15.0991Z" fill="#ED1C24"/>
<path d="M127.013 16.1586C127.013 16.1586 125.594 18.1426 127.073 18.7976C128.385 19.3811 129.427 18.1593 129.739 17.2995C129.739 17.2995 128.943 18.4332 127.79 17.9044C126.82 17.4614 127.013 16.1562 127.013 16.1562V16.1586Z" fill="#ED1C24"/>
<path d="M126.916 18.4683C126.916 18.4683 125.494 20.4498 126.973 21.1072C128.285 21.6907 129.327 20.4689 129.639 19.6115C129.639 19.6115 128.846 20.7428 127.693 20.2164C126.723 19.7711 126.918 18.4683 126.918 18.4683H126.916Z" fill="#ED1C24"/>
<path d="M124.459 16.751C124.459 16.751 123.038 18.7326 124.516 19.3899C125.828 19.9734 126.87 18.7516 127.182 17.8942C127.182 17.8942 126.387 19.0255 125.233 18.4992C124.267 18.0538 124.459 16.751 124.459 16.751Z" fill="#ED1C24"/>
<path d="M130.399 9.79004C130.399 9.79004 130.051 10.2902 130.48 10.6093C130.916 10.9333 131.418 10.4664 131.516 10.1759C131.516 10.1759 131.03 10.5022 130.669 10.2854C130.305 10.0663 130.402 9.79004 130.402 9.79004H130.399Z" fill="#ED1C24"/>
<path d="M131.758 10.5625C131.758 10.5625 131.41 11.0627 131.836 11.3794C132.27 11.7033 132.774 11.2365 132.873 10.9483C132.873 10.9483 132.384 11.2746 132.026 11.0555C131.662 10.8388 131.758 10.5625 131.758 10.5625Z" fill="#ED1C24"/>
<path d="M130.53 10.6504C130.53 10.6504 130.179 11.1482 130.611 11.4697C131.045 11.7936 131.549 11.3292 131.645 11.0362C131.645 11.0362 131.159 11.3625 130.798 11.1458C130.436 10.9267 130.533 10.6504 130.533 10.6504H130.53Z" fill="#ED1C24"/>
<path d="M129.43 10.7129C129.43 10.7129 129.082 11.2107 129.508 11.5322C129.942 11.8561 130.443 11.3893 130.542 11.0963C130.542 11.0963 130.056 11.425 129.692 11.2059C129.331 10.9892 129.427 10.7129 129.427 10.7129H129.43Z" fill="#ED1C24"/>
<path d="M131.465 12.7261C131.465 12.7261 131.115 13.2215 131.546 13.5406C131.98 13.8669 132.484 13.4001 132.583 13.1095C132.583 13.1095 132.097 13.4382 131.733 13.2191C131.372 13 131.468 12.7261 131.468 12.7261H131.465Z" fill="#ED1C24"/>
<path d="M129.591 16.5444C129.591 16.5444 129.243 17.0422 129.672 17.3637C130.106 17.6877 130.61 17.2232 130.706 16.9303C130.706 16.9303 130.22 17.2566 129.859 17.0398C129.498 16.8183 129.591 16.5444 129.591 16.5444Z" fill="#ED1C24"/>
<path d="M123.147 16.8599C123.147 16.8599 122.799 17.3576 123.225 17.6792C123.661 18.0031 124.163 17.5387 124.262 17.2457C124.262 17.2457 123.773 17.572 123.412 17.3553C123.051 17.1338 123.147 16.8599 123.147 16.8599Z" fill="#ED1C24"/>
<path d="M122.087 17.2148C122.087 17.2148 121.738 17.7126 122.167 18.0318C122.604 18.3557 123.103 17.8913 123.201 17.6007C123.201 17.6007 122.715 17.9246 122.354 17.7079C121.99 17.4911 122.089 17.2148 122.089 17.2148H122.087Z" fill="#ED1C24"/>
<path d="M124.692 19.4453C124.692 19.4453 124.183 20.1741 124.807 20.6409C125.443 21.1149 126.179 20.4337 126.321 20.0074C126.321 20.0074 125.609 20.4861 125.082 20.167C124.554 19.8478 124.692 19.4453 124.692 19.4453Z" fill="#ED1C24"/>
<path d="M125.041 20.7085C125.041 20.7085 124.529 21.4373 125.155 21.9041C125.792 22.3805 126.525 21.6945 126.67 21.2706C126.67 21.2706 125.958 21.7517 125.431 21.4302C124.901 21.1086 125.041 20.7085 125.041 20.7085Z" fill="#ED1C24"/>
<path d="M126.779 21.0972C126.779 21.0972 126.418 21.614 126.859 21.9451C127.309 22.2785 127.829 21.7974 127.93 21.4973C127.93 21.4973 127.426 21.8355 127.054 21.6092C126.68 21.383 126.779 21.0972 126.779 21.0972Z" fill="#ED1C24"/>
<path d="M125.872 21.9927C125.872 21.9927 125.51 22.5071 125.952 22.8382C126.404 23.174 126.919 22.6905 127.023 22.3904C127.023 22.3904 126.519 22.7286 126.144 22.5047C125.77 22.2785 125.872 21.9927 125.872 21.9927Z" fill="#ED1C24"/>
<path d="M124.795 22.3638C124.795 22.3638 124.434 22.8782 124.878 23.2093C125.328 23.5451 125.847 23.0616 125.949 22.7615C125.949 22.7615 125.444 23.0997 125.07 22.8735C124.696 22.6472 124.795 22.3638 124.795 22.3638Z" fill="#ED1C24"/>
<path d="M131.751 8.58105C131.751 8.58105 131.53 9.03834 131.933 9.2527C132.338 9.47182 132.692 9.02643 132.733 8.77159C132.733 8.77159 132.372 9.10027 132.042 8.96213C131.712 8.82399 131.751 8.58105 131.751 8.58105Z" fill="#ED1C24"/>
<path d="M132.211 9.11762C132.211 9.11762 131.991 9.57491 132.391 9.78926C132.799 10.0084 133.152 9.563 133.191 9.30577C133.191 9.30577 132.832 9.63683 132.502 9.49631C132.17 9.35579 132.211 9.11523 132.211 9.11523V9.11762Z" fill="#ED1C24"/>
<path d="M130.707 8.34277C130.707 8.34277 130.46 8.85008 130.907 9.08825C131.359 9.33119 131.749 8.83579 131.796 8.55475C131.796 8.55475 131.395 8.92153 131.029 8.76672C130.663 8.61429 130.707 8.34516 130.707 8.34516V8.34277Z" fill="#ED1C24"/>
<path d="M131.44 7.86963C131.44 7.86963 131.193 8.37455 131.637 8.6151C132.089 8.85804 132.479 8.36026 132.523 8.07922C132.523 8.07922 132.128 8.446 131.759 8.29119C131.393 8.13638 131.44 7.86963 131.44 7.86963Z" fill="#ED1C24"/>
<path d="M132.586 8.1958C132.586 8.1958 132.396 8.5864 132.739 8.77456C133.09 8.96271 133.394 8.57688 133.43 8.35776C133.43 8.35776 133.121 8.64118 132.835 8.5221C132.549 8.40301 132.586 8.1958 132.586 8.1958Z" fill="#ED1C24"/>
<path d="M142.519 25.3399V24.542C141.703 24.5658 139.17 24.9016 137.587 27.331C135.607 30.37 136.597 32.6208 136.597 32.6208C136.597 32.6208 137.4 28.3837 142.519 29.2054V25.3399Z" fill="#00AEEF"/>
<path d="M142.494 25.0234C142.494 25.0234 138.147 25.1711 136.814 30.0274C136.814 30.0274 138.461 25.5974 142.52 25.5474V25.0353L142.494 25.0234Z" fill="#004280"/>
<path d="M142.108 28.0073C142.259 27.8906 142.407 27.7786 142.506 27.6643C143.067 27.0212 142.524 26.6735 142.085 26.6259C141.794 26.5973 141.298 26.7497 141.331 27.2475C141.35 27.5476 141.755 27.7739 142.108 28.0049V28.0073ZM142.062 26.9188C142.275 26.945 142.54 27.1665 142.267 27.5666C142.218 27.6381 142.145 27.7072 142.072 27.781C141.901 27.6357 141.737 27.4928 141.695 27.307C141.62 26.995 141.919 26.9021 142.062 26.9188Z" fill="#004280"/>
<path d="M141.731 28.6152C141.721 28.8986 142.339 29.0487 142.477 28.6438C142.55 28.4271 142.35 28.2627 142.116 28.1079H142.1C141.918 28.2532 141.737 28.4104 141.731 28.6176V28.6152Z" fill="#004280"/>
<path d="M140.66 28.2083C140.767 28.125 140.876 28.044 140.946 27.963C141.346 27.5033 140.957 27.2556 140.645 27.2223C140.437 27.2009 140.081 27.3104 140.107 27.6677C140.12 27.882 140.408 28.0416 140.66 28.2083ZM140.627 27.4295C140.777 27.4509 140.97 27.6058 140.772 27.8939C140.738 27.944 140.686 27.994 140.634 28.0464C140.512 27.9416 140.398 27.8392 140.364 27.7105C140.312 27.4867 140.525 27.4176 140.627 27.4295Z" fill="#004280"/>
<path d="M140.393 28.6458C140.385 28.8485 140.827 28.9559 140.929 28.6672C140.981 28.5122 140.838 28.3953 140.671 28.2832H140.661C140.531 28.3858 140.4 28.5003 140.395 28.6482L140.393 28.6458Z" fill="#004280"/>
<path d="M139.649 28.5255C139.712 28.4493 139.774 28.373 139.81 28.304C140.018 27.9086 139.688 27.7871 139.457 27.811C139.301 27.83 139.065 27.9634 139.145 28.2182C139.194 28.373 139.433 28.4445 139.649 28.5255ZM139.483 27.9658C139.597 27.9586 139.764 28.042 139.673 28.2802C139.657 28.3207 139.628 28.3683 139.6 28.4135C139.493 28.3564 139.389 28.2992 139.343 28.2087C139.262 28.0539 139.405 27.9729 139.483 27.9658Z" fill="#004280"/>
<path d="M139.532 28.88C139.563 29.0303 139.907 29.0374 139.925 28.8108C139.935 28.6891 139.81 28.6271 139.665 28.5723H139.659C139.584 28.6677 139.511 28.7703 139.532 28.88Z" fill="#004280"/>
<path d="M138.74 28.8847C138.776 28.8061 138.812 28.7299 138.825 28.6608C138.909 28.2774 138.597 28.2369 138.402 28.3059C138.272 28.3488 138.1 28.5155 138.233 28.718C138.311 28.8394 138.534 28.8561 138.74 28.8823V28.8847ZM138.462 28.4345C138.558 28.4036 138.721 28.4441 138.703 28.6656C138.698 28.7037 138.685 28.7489 138.672 28.7942C138.566 28.7656 138.464 28.7394 138.402 28.6703C138.295 28.5536 138.402 28.4512 138.464 28.4322L138.462 28.4345Z" fill="#004280"/>
<path d="M138.724 29.2187C138.787 29.3404 139.086 29.2808 139.047 29.0804C139.026 28.9754 138.904 28.9444 138.769 28.9277H138.761C138.719 29.0279 138.68 29.1305 138.724 29.2187Z" fill="#004280"/>
<path d="M147.796 38.9436C147.84 38.503 145.393 32.2557 145.393 32.2557L145.263 32.0961C145.263 32.0961 142.002 30.3885 139.806 31.0815C139.226 31.2625 138.709 31.6127 138.577 32.2557C138.577 32.2557 140.326 32.7344 140.458 34.0587C140.507 34.5517 140.276 34.9447 140.021 35.3186C139.871 35.4949 139.611 35.8759 139.554 36.0712C139.382 36.4547 139.361 36.8762 139.743 37.4169C138.452 36.9429 137.028 38.0099 137.028 38.0099C142.711 39.5509 143.361 43.8713 143.361 43.8713C143.852 43.4784 144.39 42.7615 144.865 41.8636L145.307 42.0708C145.307 42.0708 147.755 39.3866 147.796 38.946V38.9436Z" fill="#F26522"/>
<path d="M143.62 42.1554C143.62 42.1554 142.329 38.8401 138.774 37.9517C138.774 37.9517 139.743 37.835 140.775 38.1279C140.775 38.1279 139.803 37.1848 140.45 36.2916C140.824 35.7796 141.76 35.5533 142.711 36.6489C142.711 36.6489 145.169 34.7864 143.709 33.4217C142.698 32.4738 142.131 30.0778 144.262 33.3336C145.229 34.8078 145.133 38.7615 143.618 42.1578L143.62 42.1554Z" fill="#ED1C24"/>
<path d="M138.128 29.3931C138.141 29.3263 138.151 29.2595 138.151 29.2046C138.141 28.8921 137.888 28.916 137.75 28.9995C137.657 29.0567 137.555 29.2118 137.701 29.3501C137.789 29.4312 137.966 29.405 138.13 29.3931H138.128ZM137.821 29.0901C137.891 29.0496 138.026 29.052 138.055 29.2309C138.06 29.2619 138.058 29.2977 138.058 29.3382C137.966 29.3358 137.883 29.331 137.821 29.2881C137.714 29.2142 137.776 29.1188 137.821 29.0925V29.0901Z" fill="#004280"/>
<path d="M138.185 29.6522C138.258 29.7357 138.477 29.6403 138.406 29.4924C138.37 29.4113 138.268 29.4113 138.159 29.4184H138.154C138.141 29.5043 138.13 29.5902 138.185 29.6522Z" fill="#004280"/>
<path d="M137.606 29.9286C137.614 29.8833 137.624 29.8404 137.622 29.8022C137.614 29.5947 137.447 29.609 137.354 29.6663C137.291 29.7068 137.223 29.8094 137.32 29.9024C137.377 29.9573 137.497 29.9382 137.606 29.9286ZM137.4 29.7259C137.447 29.6996 137.538 29.702 137.559 29.8189C137.559 29.8428 137.559 29.8666 137.559 29.8881C137.499 29.8881 137.442 29.8881 137.4 29.8571C137.33 29.807 137.372 29.745 137.4 29.7259Z" fill="#004280"/>
<path d="M137.646 30.104C137.696 30.1589 137.841 30.0945 137.792 29.9967C137.769 29.9442 137.701 29.9442 137.628 29.9466C137.618 30.0038 137.612 30.0611 137.649 30.104H137.646Z" fill="#004280"/>
<path d="M143.827 39.2815C143.827 39.2815 142.642 36.8069 141.753 36.4163C140.865 36.0233 140.47 36.895 140.945 37.4786C141.421 38.0621 141.821 37.4595 142.315 37.6691C142.808 37.8787 143.827 39.2815 143.827 39.2815Z" fill="#F47721"/>
<path d="M131.565 30.6716C131.565 30.967 131.302 31.2051 130.98 31.2051C130.658 31.2051 130.395 30.9646 130.395 30.6716C130.395 30.3787 130.655 30.1357 130.98 30.1357C131.305 30.1357 131.565 30.3763 131.565 30.6716Z" fill="white"/>
<path d="M139.006 34.395C139.006 34.7713 138.673 35.0785 138.26 35.0785C137.847 35.0785 137.512 34.7713 137.512 34.395C137.512 34.0187 137.847 33.7114 138.26 33.7114C138.673 33.7114 139.006 34.0163 139.006 34.395Z" fill="white"/>
<path d="M141.717 28.2246C141.717 28.2246 141.721 28.2277 141.724 28.2277C141.724 28.2277 141.724 28.2277 141.728 28.2246H141.714H141.717Z" fill="#004280"/>
<path d="M129.381 40.097C129.381 40.097 129.03 39.4516 128.243 39.6326C127.606 39.7803 127.697 40.3876 127.967 40.5258C128.092 40.5877 128.261 40.5924 128.386 40.5162C128.575 40.3995 128.581 40.2304 128.539 40.1185C128.539 40.1185 128.776 39.7755 129.384 40.097H129.381Z" fill="#00AEEF"/>
<path d="M127.939 40.0806C128.056 39.6781 128.672 39.6066 129.064 39.8996C129.064 39.8996 128.583 39.7448 128.3 40.0306C128.271 40.0591 128.253 40.0925 128.243 40.1211C128.279 40.1425 128.308 40.1758 128.321 40.2187C128.344 40.3068 128.284 40.3926 128.188 40.4164C128.147 40.4259 128.105 40.4212 128.069 40.4045C127.991 40.3759 127.876 40.2997 127.941 40.0806H127.939Z" fill="#004280"/>
<path d="M131.187 39.8432C131.187 39.8432 130.93 39.1787 130.138 39.2692C129.498 39.343 129.509 39.9432 129.756 40.11C129.867 40.1862 130.031 40.2076 130.164 40.1481C130.364 40.0576 130.39 39.8908 130.364 39.7741C130.364 39.7741 130.642 39.4693 131.19 39.8432H131.187Z" fill="#00AEEF"/>
<path d="M129.783 39.6749C129.949 39.2962 130.56 39.2891 130.903 39.6201C130.903 39.6201 130.453 39.4153 130.144 39.6654C130.11 39.6892 130.09 39.7202 130.074 39.7487C130.108 39.7702 130.129 39.8107 130.136 39.8512C130.149 39.9393 130.079 40.0203 129.983 40.0298C129.941 40.0346 129.902 40.025 129.869 40.0036C129.796 39.9702 129.695 39.8821 129.786 39.6749H129.783Z" fill="#004280"/>
<path d="M133.026 39.8471C133.026 39.8471 132.943 39.185 132.192 39.1159C131.586 39.0587 131.456 39.6161 131.643 39.8161C131.729 39.9066 131.875 39.9614 132.01 39.9305C132.218 39.8828 132.28 39.7375 132.28 39.6256C132.28 39.6256 132.605 39.397 133.026 39.8495V39.8471Z" fill="#00AEEF"/>
<path d="M131.772 39.4189C132.012 39.0998 132.575 39.2165 132.817 39.5856C132.817 39.5856 132.451 39.3117 132.105 39.4784C132.071 39.4951 132.043 39.5189 132.022 39.5404C132.048 39.5713 132.061 39.6094 132.056 39.6476C132.045 39.7309 131.962 39.7905 131.874 39.7833C131.835 39.7785 131.798 39.7595 131.775 39.7357C131.715 39.6904 131.643 39.5904 131.775 39.4165L131.772 39.4189Z" fill="#004280"/>
<path d="M134.53 39.9107C134.53 39.9107 134.507 39.2986 133.826 39.1866C133.275 39.0937 133.116 39.5963 133.272 39.7916C133.342 39.8797 133.472 39.9393 133.597 39.9178C133.789 39.8916 133.86 39.7606 133.87 39.6582C133.87 39.6582 134.187 39.4701 134.533 39.9131L134.53 39.9107Z" fill="#00AEEF"/>
<path d="M133.418 39.4357C133.665 39.1642 134.169 39.3047 134.362 39.6596C134.362 39.6596 134.047 39.3833 133.72 39.5143C133.686 39.5286 133.663 39.5453 133.639 39.5643C133.66 39.5929 133.668 39.6286 133.663 39.6667C133.647 39.743 133.569 39.7906 133.483 39.7787C133.447 39.7692 133.416 39.7549 133.395 39.7287C133.346 39.6834 133.286 39.5858 133.418 39.4381V39.4357Z" fill="#004280"/>
<path d="M135.775 40.0527C135.775 40.0527 135.853 39.5096 135.273 39.3143C134.806 39.1571 134.582 39.5763 134.686 39.7692C134.733 39.855 134.837 39.9264 134.951 39.9264C135.123 39.9264 135.208 39.8216 135.232 39.7335C135.232 39.7335 135.541 39.612 135.775 40.0503V40.0527Z" fill="#00AEEF"/>
<path d="M134.873 39.4802C135.135 39.273 135.556 39.4683 135.666 39.8041C135.666 39.8041 135.434 39.5183 135.125 39.5873C135.091 39.5945 135.068 39.6064 135.042 39.6207C135.057 39.6493 135.06 39.6802 135.044 39.7136C135.019 39.7779 134.941 39.8088 134.87 39.785C134.839 39.7731 134.816 39.7541 134.8 39.7302C134.764 39.6826 134.727 39.5921 134.87 39.4778L134.873 39.4802Z" fill="#004280"/>
<path d="M137.051 40.354C137.051 40.354 137.124 39.861 136.594 39.6847C136.17 39.5418 135.965 39.9229 136.061 40.0968C136.103 40.1777 136.199 40.2397 136.303 40.2397C136.459 40.2397 136.534 40.1444 136.558 40.0658C136.558 40.0658 136.838 39.9562 137.051 40.354Z" fill="#00AEEF"/>
<path d="M136.232 39.8309C136.469 39.6428 136.851 39.8214 136.952 40.1286C136.952 40.1286 136.742 39.8666 136.461 39.931C136.433 39.9381 136.409 39.9476 136.391 39.9619C136.401 39.9881 136.404 40.0167 136.391 40.0453C136.368 40.1024 136.297 40.1334 136.232 40.112C136.206 40.1024 136.183 40.0834 136.17 40.0619C136.136 40.0191 136.105 39.9357 136.235 39.8333L136.232 39.8309Z" fill="#004280"/>
<path d="M138.105 40.6357C138.105 40.6357 138.165 40.2237 137.723 40.0736C137.364 39.9569 137.193 40.2737 137.273 40.4214C137.31 40.4881 137.388 40.5381 137.476 40.5404C137.606 40.5404 137.671 40.4619 137.692 40.3928C137.692 40.3928 137.926 40.2999 138.102 40.6333L138.105 40.6357Z" fill="#00AEEF"/>
<path d="M137.418 40.1979C137.618 40.0407 137.94 40.1884 138.024 40.4456C138.024 40.4456 137.85 40.2289 137.61 40.2813C137.587 40.2908 137.569 40.298 137.551 40.3075C137.561 40.3289 137.561 40.3551 137.551 40.3766C137.53 40.4266 137.473 40.4528 137.418 40.4337C137.395 40.4242 137.379 40.4075 137.364 40.3909C137.338 40.3551 137.309 40.2837 137.418 40.2003V40.1979Z" fill="#004280"/>
<path d="M139.039 41.0889C139.039 41.0889 139.171 40.6912 138.761 40.4768C138.431 40.3077 138.205 40.5959 138.257 40.7531C138.28 40.8245 138.348 40.8888 138.433 40.9031C138.563 40.9246 138.641 40.8531 138.672 40.7912C138.672 40.7912 138.922 40.734 139.039 41.0889Z" fill="#00AEEF"/>
<path d="M138.435 40.5589C138.661 40.4326 138.95 40.6279 138.986 40.8923C138.986 40.8923 138.851 40.6518 138.607 40.6684C138.581 40.6708 138.56 40.678 138.544 40.6851C138.549 40.7065 138.547 40.7304 138.534 40.7542C138.505 40.8018 138.443 40.8137 138.391 40.7875C138.37 40.7756 138.357 40.7589 138.347 40.7375C138.326 40.6994 138.313 40.6256 138.435 40.5565V40.5589Z" fill="#004280"/>
<path d="M139.831 41.6486C139.831 41.6486 140.054 41.3675 139.794 41.0984C139.584 40.8793 139.319 41.0507 139.316 41.1889C139.316 41.2508 139.347 41.3199 139.412 41.3508C139.508 41.4009 139.592 41.3651 139.633 41.3223C139.633 41.3223 139.846 41.3413 139.831 41.6486Z" fill="#00AEEF"/>
<path d="M139.515 41.0785C139.728 41.0356 139.9 41.2622 139.851 41.4816C139.851 41.4816 139.817 41.2574 139.622 41.2097C139.601 41.2026 139.583 41.2026 139.564 41.2049C139.562 41.224 139.554 41.2455 139.536 41.255C139.499 41.286 139.447 41.2813 139.414 41.2479C139.398 41.2336 139.393 41.2145 139.393 41.1978C139.39 41.162 139.398 41.1 139.515 41.0761V41.0785Z" fill="#004280"/>
<path d="M130.936 48.4608L128.615 47.832L130.094 49.7088C130.26 49.2301 130.554 48.8038 130.936 48.4608Z" fill="#F47721"/>
<path d="M129.988 51.2046C129.892 50.7592 129.951 50.3472 129.951 50.3472L127.395 50.6306L130.255 51.9382C130.172 51.7786 130.105 51.6095 130.055 51.4356C130.029 51.3665 130.009 51.2903 129.99 51.207L129.988 51.2046Z" fill="#F47721"/>
<path d="M131.713 46.0698V47.9371C132.048 47.7727 132.42 47.6632 132.812 47.6132L131.713 46.0698Z" fill="#F47721"/>
<path d="M135.799 45.9379L133.951 47.648C134.466 47.7457 134.936 47.9552 135.336 48.2434L135.801 45.9355L135.799 45.9379Z" fill="#F47721"/>
<path d="M137.982 48.4268L135.932 48.8031C136.16 49.0841 136.345 49.4009 136.459 49.7438L137.985 48.4268H137.982Z" fill="#F47721"/>
<path d="M136.306 51.8943L139.191 51.0916L136.587 50.3843C136.592 50.4676 136.6 50.5534 136.6 50.6391C136.6 51.0869 136.494 51.5108 136.304 51.8943H136.306Z" fill="#F47721"/>
<path d="M133.688 36.4729C133.688 36.4729 134.27 36.5348 134.527 36.4896C134.527 36.4896 134.628 35.7012 134.236 35.3726C134.236 35.3726 133.776 35.6727 133.688 36.4705V36.4729Z" fill="#F47721"/>
<path d="M139.264 32.235C139.264 32.235 139.425 32.2874 139.607 32.4089C139.781 32.5232 139.9 32.6089 139.968 32.6756C139.968 32.6756 140.163 32.3588 139.872 32.1564C139.625 31.9897 139.321 32.1397 139.266 32.2374L139.264 32.235Z" fill="white"/>
<path d="M140.076 32.784C140.076 32.784 140.211 32.8816 140.339 33.0484C140.463 33.2103 140.547 33.3246 140.588 33.408C140.588 33.408 140.884 33.1651 140.674 32.8888C140.502 32.6578 140.159 32.7101 140.076 32.784Z" fill="white"/>
<path d="M140.637 33.5542C140.637 33.5542 140.707 33.6971 140.741 33.8995C140.772 34.0925 140.787 34.2306 140.785 34.3211C140.785 34.3211 141.167 34.2306 141.123 33.8948C141.081 33.6209 140.751 33.5208 140.639 33.5518L140.637 33.5542Z" fill="white"/>
<path d="M140.788 34.5137C140.788 34.5137 140.77 34.6709 140.687 34.8614C140.606 35.0424 140.547 35.171 140.492 35.2449C140.492 35.2449 140.874 35.3449 141.017 35.0353C141.134 34.778 140.905 34.5399 140.788 34.5137Z" fill="white"/>
<path d="M140.409 35.3979C140.409 35.3979 140.339 35.5432 140.193 35.698C140.053 35.8505 139.954 35.9505 139.876 36.0077C139.876 36.0077 140.206 36.2101 140.448 35.9576C140.648 35.7481 140.51 35.4551 140.411 35.3979H140.409Z" fill="white"/>
<path d="M142.645 31.8364C142.645 31.8364 140.871 30.8432 139.496 31.6744C139.496 31.6744 142.032 31.1409 143.776 33.7156L142.645 31.8364Z" fill="white"/>
<path d="M142.773 34.1045C142.773 34.1045 142.324 32.4755 140.32 32.061C140.32 32.061 142.547 32.7422 142.708 36.1171L142.773 34.1045Z" fill="#ED1C24"/>
<rect x="118.12" y="19.2915" width="5.45677" height="32.6295" fill="#F1F2F2"/>
<rect x="142.544" width="5.45677" height="51.9214" fill="white"/>
</svg>
