<svg xmlns="http://www.w3.org/2000/svg" xmlns:svg="http://www.w3.org/2000/svg" viewBox="0 0 13.229166 16.536457499999997" version="1.1" x="0px" y="0px"><g><path style="color:#000000;" d="m 1.9182295,1.3229167 c -0.435242,0 -0.79375,0.3585083 -0.79375,0.79375 v 8.9958323 c 0,0.435242 0.358508,0.79375 0.79375,0.79375 h 6.309691 c -0.344946,-0.249105 -0.633612,-0.576506 -0.83044,-0.960665 -1.85e-4,-2.64e-4 -3.44e-4,-7.94e-4 -5.29e-4,-0.0011 -0.465042,-0.871175 -0.415942,-1.9686027 0.130225,-2.7925917 0.489805,-0.774539 1.366332,-1.250945 2.275313,-1.269175 h 10e-4 c 0.106076,-0.0029 0.2118995,0.0016 0.3167755,0.01138 V 4.4979166 H 7.7390165 c -0.435242,0 -0.79375,-0.3585078 -0.79375,-0.79375 V 1.3229167 Z m 5.556249,0.1550294 v 2.2262205 c 0,0.1492594 0.115325,0.2645833 0.264584,0.2645833 h 2.22622 z m -4.101041,2.4908038 h 2.38125 a 0.26458332,0.26458332 0 0 1 0.264583,0.2645833 0.26458332,0.26458332 0 0 1 -0.264583,0.2645834 h -2.38125 A 0.26458332,0.26458332 0 0 1 3.1088535,4.2333332 0.26458332,0.26458332 0 0 1 3.3734375,3.9687499 Z m 0,1.5874999 h 4.365625 a 0.26458332,0.26458332 0 0 1 0.264583,0.2645834 0.26458332,0.26458332 0 0 1 -0.264583,0.2645831 H 3.3734375 A 0.26458332,0.26458332 0 0 1 3.1088535,5.8208332 0.26458332,0.26458332 0 0 1 3.3734375,5.5562498 Z m 0,1.5874995 h 3.307291 a 0.26458332,0.26458332 0 0 1 0.264584,0.264584 0.26458332,0.26458332 0 0 1 -0.264584,0.264583 h -3.307291 a 0.26458332,0.26458332 0 0 1 -0.264584,-0.264583 0.26458332,0.26458332 0 0 1 0.264584,-0.264584 z m 6.482291,0.264584 c -1.23893,0 -2.248958,1.010028 -2.248958,2.248958 0,1.2389297 1.010028,2.2489577 2.248958,2.2489577 1.2389295,0 2.2489575,-1.010028 2.2489575,-2.2489577 0,-1.23893 -1.010027,-2.248958 -2.2489575,-2.248958 z m 0,1.190625 a 0.26458332,0.26458332 0 0 1 0.2645825,0.264583 v 0.816488 l 0.451652,0.4516517 a 0.26458332,0.26458332 0 0 1 0,0.374137 0.26458332,0.26458332 0 0 1 -0.374137,0 L 9.6686595,9.9766513 a 0.26460978,0.26460978 0 0 1 -0.07751,-0.187068 v -0.926042 a 0.26458332,0.26458332 0 0 1 0.264583,-0.264583 z m -6.482291,0.132291 h 2.778125 a 0.26458332,0.26458332 0 0 1 0.264583,0.264584 0.26458332,0.26458332 0 0 1 -0.264583,0.264583 h -2.778125 a 0.26458332,0.26458332 0 0 1 -0.264584,-0.264583 0.26458332,0.26458332 0 0 1 0.264584,-0.264584 z" fill="#000000" stroke="none"/></g><text x="0" y="28.229166" fill="#000000" font-size="5px" font-weight="bold" font-family="'Helvetica Neue', Helvetica, Arial-Unicode, Arial, Sans-serif">Created by Tauficon</text><text x="0" y="33.229166" fill="#000000" font-size="5px" font-weight="bold" font-family="'Helvetica Neue', Helvetica, Arial-Unicode, Arial, Sans-serif">from the Noun Project</text></svg>