<?xml version="1.0" standalone="no"?>
<!DOCTYPE svg PUBLIC "-//W3C//DTD SVG 20010904//EN"
 "http://www.w3.org/TR/2001/REC-SVG-20010904/DTD/svg10.dtd">
<svg version="1.0" xmlns="http://www.w3.org/2000/svg"
 width="64.000000pt" height="64.000000pt" viewBox="0 0 64.000000 64.000000"
 preserveAspectRatio="xMidYMid meet">

<g transform="translate(0.000000,64.000000) scale(0.100000,-0.100000)"
fill="#000000" stroke="none">
<path d="M64 505 c-15 -23 -15 -27 0 -50 l16 -25 240 0 240 0 16 25 c15 23 15
27 0 50 l-16 25 -240 0 -240 0 -16 -25z"/>
<path d="M118 345 c-8 -19 -8 -31 0 -50 l12 -25 193 0 c175 0 196 2 210 18 22
24 21 45 -1 65 -16 15 -46 17 -211 17 l-191 0 -12 -25z"/>
<path d="M172 198 c-15 -15 -15 -61 0 -76 8 -8 58 -12 160 -12 135 0 148 2
158 19 14 27 13 47 -6 65 -13 13 -42 16 -158 16 -97 0 -146 -4 -154 -12z"/>
</g>
</svg>
